<?xml version="1.0" encoding="UTF-8"?>
<svg id="Capa_1" data-name="Capa 1" xmlns="http://www.w3.org/2000/svg" viewBox="0 0 67.55 75.87">
  <defs>
    <style>
      .cls-1 {
        fill: #fff;
      }
    </style>
  </defs>
  <path class="cls-1" d="M42.6,6.77c0-3.74-3.03-6.77-6.77-6.77s-6.77,3.03-6.77,6.77,3.03,6.77,6.77,6.77,6.77-3.03,6.77-6.77ZM52.39,44.44c-.83-.76-1.7-1.08-2.72-1.1h-8.51s0-9.82,0-9.82h10.24c1.6-.17,2.71-1.51,2.62-3s-1.25-2.69-2.81-2.69l-10.03-.02-.07-5.76c-.04-3.38-3.03-5.88-6.27-5.77s-5.93,2.63-5.93,5.98l-.02,23.21c0,2.96,2.33,5.31,5.28,5.32h12.75c.37,0,.93.22,1.22.48l13.79,12.13c1.43,1.26,3.43,1.21,4.68-.1s1.27-3.36-.08-4.71l-14.14-14.14ZM8.88,41.95c2.45-5.96,7.6-10.11,13.74-11.51,1.19-.27,2.08-1.09,2.49-1.91.61-1.23.47-2.39-.08-3.51-.65-1.33-2.03-2.24-3.59-1.93C10.48,25.24,2.02,34.09.32,45.06c-2.02,13.07,5.78,25.47,18.12,29.5s26.03-1.61,32.06-13.35c1.02-1.98.51-4.29-1.5-5.31s-4.14-.14-5.11,1.82c-4.63,9.36-15.81,13.24-25.2,8.96s-13.79-15.06-9.81-24.73Z"/>
  <path d="M8.88,41.95c-3.98,9.67.58,20.52,9.81,24.73s20.57.4,25.2-8.96c.97-1.96,3.18-2.8,5.11-1.82s2.51,3.33,1.5,5.31c-6.04,11.74-19.59,17.42-32.06,13.35S-1.7,58.13.32,45.06c1.7-10.97,10.17-19.83,21.11-21.97,1.57-.31,2.94.6,3.59,1.93.55,1.12.7,2.28.08,3.51-.41.82-1.29,1.64-2.49,1.91-6.14,1.4-11.28,5.54-13.74,11.51Z"/>
  <path d="M52.39,44.44l14.14,14.14c1.35,1.35,1.33,3.4.08,4.71s-3.25,1.36-4.68.1l-13.79-12.13c-.29-.26-.85-.47-1.22-.47h-12.75c-2.95-.01-5.28-2.37-5.28-5.32l.02-23.21c0-3.35,2.8-5.88,5.93-5.98s6.23,2.39,6.27,5.77l.07,5.76,10.03.02c1.56,0,2.73,1.26,2.81,2.69s-1.02,2.83-2.62,3h-10.24s0,9.82,0,9.82h8.51c1.02.03,1.9.35,2.72,1.1Z"/>
  <circle cx="35.83" cy="6.77" r="6.77"/>
</svg>